<?xml version="1.0" encoding="utf-8"?>
<!-- Generator: Adobe Illustrator 22.0.1, SVG Export Plug-In . SVG Version: 6.00 Build 0)  -->
<svg version="1.1" id="Слой_1" xmlns:svgjs="http://svgjs.com/svgjs"
	 xmlns="http://www.w3.org/2000/svg" xmlns:xlink="http://www.w3.org/1999/xlink" x="0px" y="0px" viewBox="0 0 512 512"
	 style="enable-background:new 0 0 512 512;" xml:space="preserve">
<path d="M486,512H376.3c-16.1-14.1-6.3-32,7.7-32h84c6.6,0,12-5.4,12-12v-91.7c14.1-16.1,32-6.3,32,7.7v102
	C512,500.4,500.4,512,486,512z"/>
<path d="M512,26v109.7c-14.1,16.1-32,6.3-32-7.7V44c0-6.6-5.4-12-12-12h-91.7C360.2,17.9,370,0,384,0h102C500.4,0,512,11.6,512,26z"
	/>
<path d="M26,0l109.7,0c16.1,14.1,6.3,32-7.7,32H44c-6.6,0-12,5.4-12,12v91.7C17.9,151.8,0,142,0,128V26C0,11.6,11.6,0,26,0z"/>
<path d="M0,486l0-109.7c14.1-16.1,32-6.3,32,7.7v84c0,6.6,5.4,12,12,12h91.7c16.1,14.1,6.3,32-7.7,32H26C11.6,512,0,500.4,0,486z"/>
<path d="M233,240H71c-3.9,0-7-3.1-7-7V71c0-3.9,3.1-7,7-7h162c3.9,0,7,3.1,7,7v162C240,236.9,236.9,240,233,240z M208,96H96v112h112
	V96z"/>
<path d="M233,448H71c-3.9,0-7-3.1-7-7V279c0-3.9,3.1-7,7-7h162c3.9,0,7,3.1,7,7v162C240,444.9,236.9,448,233,448z M208,304H96v112
	h112V304z"/>
<path d="M441,240H279c-3.9,0-7-3.1-7-7V71c0-3.9,3.1-7,7-7h162c3.9,0,7,3.1,7,7v162C448,236.9,444.9,240,441,240z M416,96H304v112
	h112V96z"/>
<path d="M424.1,221.7H295.9c-3.1,0-5.5-2.5-5.5-5.5V87.9c0-3.1,2.5-5.5,5.5-5.5h128.3c3.1,0,5.5,2.5,5.5,5.5v128.3
	C429.7,219.2,427.2,221.7,424.1,221.7z M404.3,107.7h-88.7v88.7h88.7V107.7z"/>
<path d="M216.1,221.7H87.9c-3.1,0-5.5-2.5-5.5-5.5V87.9c0-3.1,2.5-5.5,5.5-5.5h128.3c3.1,0,5.5,2.5,5.5,5.5v128.3
	C221.7,219.2,219.2,221.7,216.1,221.7z M196.3,107.7h-88.7v88.7h88.7V107.7z"/>
<path d="M216.1,432.7H87.9c-3.1,0-5.5-2.5-5.5-5.5V298.9c0-3.1,2.5-5.5,5.5-5.5h128.3c3.1,0,5.5,2.5,5.5,5.5v128.3
	C221.7,430.2,219.2,432.7,216.1,432.7z M196.3,318.7h-88.7v88.7h88.7V318.7z"/>
<path d="M384.7,389.3h-108c-2.6,0-4.7-2.1-4.7-4.7v-108c0-2.6,2.1-4.7,4.7-4.7h108c2.6,0,4.7,2.1,4.7,4.7v108
	C389.3,387.2,387.2,389.3,384.7,389.3z M368,293.3h-74.7V368H368V293.3z"/>
<path d="M368.4,371.6H293c-1.8,0-3.3-1.5-3.3-3.3V293c0-1.8,1.5-3.3,3.3-3.3h75.4c1.8,0,3.3,1.5,3.3,3.3v75.4
	C371.6,370.2,370.2,371.6,368.4,371.6z M356.7,304.6h-52.1v52.1h52.1V304.6z"/>
<rect x="272" y="412" width="176" height="36"/>
<rect x="341.7" y="342" transform="matrix(-1.836970e-16 1 -1 -1.836970e-16 789.6667 -69.6667)" width="176" height="36"/>
</svg>
