<?xml version="1.0" encoding="utf-8"?>
<!-- Generator: Adobe Illustrator 22.0.1, SVG Export Plug-In . SVG Version: 6.00 Build 0)  -->
<svg version="1.1" id="Слой_2" xmlns="http://www.w3.org/2000/svg" xmlns:xlink="http://www.w3.org/1999/xlink" x="0px" y="0px"
	 viewBox="0 0 1000 1000" style="enable-background:new 0 0 1000 1000;" xml:space="preserve">
<style type="text/css">
	.st0{opacity:0.5;fill:#B646F0;}
</style>
<path class="st0" d="M517.3,387.9l12.6-12.6l-4.1-4.1l-5.8,5.8c-0.3,0.3-0.8,0.3-1,0c0,0,0,0,0,0l-1.1-1.1c-0.3-0.3-0.3-0.8,0-1.1
	l5.8-5.8l-3.2-3.2c-1.2-1.2-3-1.2-4.2,0l-8.4,8.4c-1.2,1.2-1.2,3,0,4.2L517.3,387.9L517.3,387.9z M553.7,376.9
	c1.8-1.8,1.8-4.6,0-6.4l-4.2-4.2c-1.8-1.8-4.6-1.8-6.4,0l-4.3,4.3l10.6,10.6L553.7,376.9L553.7,376.9z M536.6,372.8l-27.8,27.8
	l-1.8,10.1c-0.2,1.4,0.9,2.5,2.3,2.3l10.1-1.8l27.8-27.8L536.6,372.8z M554.1,399.5l-3.2-3.2l-5.8,5.8c-0.3,0.3-0.8,0.3-1.1,0
	l-1.1-1.1c-0.3-0.3-0.3-0.8,0-1.1l5.8-5.8l-4.1-4.1l-12.6,12.6l9.4,9.4c1.2,1.2,3,1.2,4.2,0l8.4-8.4
	C555.3,402.6,555.3,400.7,554.1,399.5L554.1,399.5z"/>
<path class="st0" d="M314.1,329.4l12.6-12.6l-4.1-4.1l-5.8,5.8c-0.3,0.3-0.8,0.3-1,0c0,0,0,0,0,0l-1.1-1.1c-0.3-0.3-0.3-0.8,0-1.1
	l5.8-5.8l-3.2-3.2c-1.2-1.2-3-1.2-4.2,0l-8.4,8.4c-1.2,1.2-1.2,3,0,4.2L314.1,329.4L314.1,329.4z M350.5,318.4
	c1.8-1.8,1.8-4.6,0-6.4l-4.2-4.2c-1.8-1.8-4.6-1.8-6.4,0l-4.3,4.3l10.6,10.6L350.5,318.4L350.5,318.4z M333.5,314.3l-27.8,27.8
	l-1.8,10.1c-0.2,1.4,0.9,2.5,2.3,2.3l10.1-1.8l27.8-27.8L333.5,314.3z M351,341l-3.2-3.2l-5.8,5.8c-0.3,0.3-0.8,0.3-1.1,0l-1.1-1.1
	c-0.3-0.3-0.3-0.8,0-1.1l5.8-5.8l-4.1-4.1l-12.6,12.6l9.4,9.4c1.2,1.2,3,1.2,4.2,0l8.4-8.4C352.1,344.1,352.1,342.2,351,341L351,341
	z"/>
<path class="st0" d="M639.7,605.4l12.6-12.6l-4.1-4.1l-5.8,5.8c-0.3,0.3-0.8,0.3-1,0c0,0,0,0,0,0l-1.1-1.1c-0.3-0.3-0.3-0.8,0-1.1
	l5.8-5.8l-3.2-3.2c-1.2-1.2-3-1.2-4.2,0l-8.4,8.4c-1.2,1.2-1.2,3,0,4.2L639.7,605.4L639.7,605.4z M676.1,594.4
	c1.8-1.8,1.8-4.6,0-6.4l-4.2-4.2c-1.8-1.8-4.6-1.8-6.4,0l-4.3,4.3l10.6,10.6L676.1,594.4L676.1,594.4z M659.1,590.3l-27.8,27.8
	l-1.8,10.1c-0.2,1.4,0.9,2.5,2.3,2.3l10.1-1.8l27.8-27.8L659.1,590.3z M676.5,617l-3.2-3.2l-5.8,5.8c-0.3,0.3-0.8,0.3-1.1,0
	l-1.1-1.1c-0.3-0.3-0.3-0.8,0-1.1l5.8-5.8l-4.1-4.1l-12.6,12.6l9.4,9.4c1.2,1.2,3,1.2,4.2,0l8.4-8.4
	C677.7,620.1,677.7,618.2,676.5,617L676.5,617z"/>
<path class="st0" d="M472.5,666.7V630c0-1.5-1.2-2.6-2.6-2.6H434c-5.8,0-10.5,4.7-10.5,10.5v35c0,5.8,4.7,10.5,10.5,10.5h35.9
	c1.5,0,2.6-1.2,2.6-2.6V679c0-0.8-0.4-1.6-1-2c-0.5-1.7-0.5-6.5,0-8.2C472.1,668.3,472.5,667.5,472.5,666.7L472.5,666.7z M437.5,642
	c0-0.4,0.3-0.7,0.7-0.7h23.2c0.4,0,0.7,0.3,0.7,0.7v2.2c0,0.4-0.3,0.7-0.7,0.7h-23.2c-0.4,0-0.7-0.3-0.7-0.7V642z M437.5,649
	c0-0.4,0.3-0.7,0.7-0.7h23.2c0.4,0,0.7,0.3,0.7,0.7v2.2c0,0.4-0.3,0.7-0.7,0.7h-23.2c-0.4,0-0.7-0.3-0.7-0.7V649z M465.2,676.3H434
	c-1.9,0-3.5-1.6-3.5-3.5c0-1.9,1.6-3.5,3.5-3.5h31.2C465,671.2,465,674.5,465.2,676.3z"/>
<path class="st0" d="M521.5,547.4v-36.8c0-1.5-1.2-2.6-2.6-2.6H483c-5.8,0-10.5,4.7-10.5,10.5v35c0,5.8,4.7,10.5,10.5,10.5h35.9
	c1.5,0,2.6-1.2,2.6-2.6v-1.8c0-0.8-0.4-1.6-1-2c-0.5-1.7-0.5-6.5,0-8.2C521.1,548.9,521.5,548.2,521.5,547.4L521.5,547.4z
	 M486.5,522.7c0-0.4,0.3-0.7,0.7-0.7h23.2c0.4,0,0.7,0.3,0.7,0.7v2.2c0,0.4-0.3,0.7-0.7,0.7h-23.2c-0.4,0-0.7-0.3-0.7-0.7V522.7z
	 M486.5,529.7c0-0.4,0.3-0.7,0.7-0.7h23.2c0.4,0,0.7,0.3,0.7,0.7v2.2c0,0.4-0.3,0.7-0.7,0.7h-23.2c-0.4,0-0.7-0.3-0.7-0.7V529.7z
	 M514.2,557H483c-1.9,0-3.5-1.6-3.5-3.5c0-1.9,1.6-3.5,3.5-3.5h31.2C514,551.9,514,555.1,514.2,557z"/>
<path class="st0" d="M756.5,352.4v-36.8c0-1.5-1.2-2.6-2.6-2.6H718c-5.8,0-10.5,4.7-10.5,10.5v35c0,5.8,4.7,10.5,10.5,10.5h35.9
	c1.5,0,2.6-1.2,2.6-2.6v-1.8c0-0.8-0.4-1.6-1-2c-0.5-1.7-0.5-6.5,0-8.2C756.1,353.9,756.5,353.2,756.5,352.4L756.5,352.4z
	 M721.5,327.7c0-0.4,0.3-0.7,0.7-0.7h23.2c0.4,0,0.7,0.3,0.7,0.7v2.2c0,0.4-0.3,0.7-0.7,0.7h-23.2c-0.4,0-0.7-0.3-0.7-0.7V327.7z
	 M721.5,334.7c0-0.4,0.3-0.7,0.7-0.7h23.2c0.4,0,0.7,0.3,0.7,0.7v2.2c0,0.4-0.3,0.7-0.7,0.7h-23.2c-0.4,0-0.7-0.3-0.7-0.7V334.7z
	 M749.2,362H718c-1.9,0-3.5-1.6-3.5-3.5c0-1.9,1.6-3.5,3.5-3.5h31.2C749,356.9,749,360.1,749.2,362z"/>
<path class="st0" d="M692,454.5l-2.2-2.2c-0.6-0.6-1.6-0.6-2.2,0l-4.5,4.5l-4.5-4.5c-0.6-0.6-1.6-0.6-2.2,0l-2.2,2.2
	c-0.6,0.6-0.6,1.6,0,2.2l4.5,4.5l-4.5,4.5c-0.6,0.6-0.6,1.6,0,2.2l2.2,2.2c0.6,0.6,1.6,0.6,2.2,0l4.5-4.5l4.5,4.5
	c0.6,0.6,1.6,0.6,2.2,0l2.2-2.2c0.6-0.6,0.6-1.6,0-2.2l-4.5-4.5l4.5-4.5C692.6,456.1,692.6,455.2,692,454.5z M690.1,430.1h-23.7
	c-1.4,0-2.6,1-3,2.3l-8.2,31.3l-5.7-10.3c-0.5-1-1.6-1.6-2.7-1.6h-7.9c-1.3,0-2.3,1-2.3,2.3v4.7c0,1.3,1,2.3,2.3,2.3h4.2l8.6,15.9
	c1.2,1.9,2.9,2.7,4.7,2.7c1.7,0,4.3-0.9,5.3-4l9.5-36.4h18.9c1.3,0,2.3-1,2.3-2.3v-4.7C692.4,431.2,691.4,430.1,690.1,430.1z"/>
<path class="st0" d="M346,546.4l-2.2-2.2c-0.6-0.6-1.6-0.6-2.2,0l-4.5,4.5l-4.5-4.5c-0.6-0.6-1.6-0.6-2.2,0l-2.2,2.2
	c-0.6,0.6-0.6,1.6,0,2.2l4.5,4.5l-4.5,4.5c-0.6,0.6-0.6,1.6,0,2.2l2.2,2.2c0.6,0.6,1.6,0.6,2.2,0l4.5-4.5l4.5,4.5
	c0.6,0.6,1.6,0.6,2.2,0l2.2-2.2c0.6-0.6,0.6-1.6,0-2.2l-4.5-4.5l4.5-4.5C346.6,548,346.6,547,346,546.4z M344.1,522h-23.7
	c-1.4,0-2.6,1-3,2.3l-8.2,31.3l-5.7-10.3c-0.5-1-1.6-1.6-2.7-1.6h-7.9c-1.3,0-2.3,1-2.3,2.3v4.7c0,1.3,1,2.3,2.3,2.3h4.2l8.6,15.9
	c1.2,1.9,2.9,2.7,4.7,2.7c1.7,0,4.3-0.9,5.3-4l9.5-36.4h18.9c1.3,0,2.3-1,2.3-2.3v-4.7C346.5,523,345.4,522,344.1,522z"/>
</svg>
