<?xml version="1.0" encoding="utf-8"?>
<!-- Generator: Adobe Illustrator 22.0.1, SVG Export Plug-In . SVG Version: 6.00 Build 0)  -->
<svg version="1.1" id="Слой_1" xmlns:svgjs="http://svgjs.com/svgjs"
	 xmlns="http://www.w3.org/2000/svg" xmlns:xlink="http://www.w3.org/1999/xlink" x="0px" y="0px" viewBox="0 0 512 512"
	 style="enable-background:new 0 0 512 512;" xml:space="preserve">
<style type="text/css">
	.st0{opacity:0.5;fill:#FFFFFF;enable-background:new    ;}
</style>
<path class="st0" d="M479.6,360V24.2c0-13.7-11-23.7-23.7-23.7H128.3c-52.9,0-95.8,42.9-95.8,95.8v319.4c0,52.9,42.9,95.8,95.8,95.8
	h327.6c13.7,0,23.7-11,23.7-23.7v-16.4c0-7.3-3.6-14.6-9.1-18.3c-4.6-15.5-4.6-59.3,0-74.8C475.9,373.7,479.6,367.3,479.6,360
	L479.6,360z M160.2,134.6c0-3.6,2.7-6.4,6.4-6.4h211.7c3.6,0,6.4,2.7,6.4,6.4v20.1c0,3.6-2.7,6.4-6.4,6.4H166.6
	c-3.6,0-6.4-2.7-6.4-6.4V134.6z M160.2,198.5c0-3.6,2.7-6.4,6.4-6.4h211.7c3.6,0,6.4,2.7,6.4,6.4v20.1c0,3.6-2.7,6.4-6.4,6.4H166.6
	c-3.6,0-6.4-2.7-6.4-6.4V198.5z M413,447.6H128.3c-17.3,0-31.9-14.6-31.9-31.9s14.6-31.9,31.9-31.9H413
	C411.1,401.1,411.1,430.3,413,447.6z"/>
</svg>
