<?xml version="1.0" encoding="utf-8"?>
<!-- Generator: Adobe Illustrator 22.0.1, SVG Export Plug-In . SVG Version: 6.00 Build 0)  -->
<svg version="1.1" id="Слой_1" xmlns="http://www.w3.org/2000/svg" xmlns:xlink="http://www.w3.org/1999/xlink" x="0px" y="0px"
	 viewBox="0 0 1000 1000" style="enable-background:new 0 0 1000 1000;" xml:space="preserve">
<style type="text/css">
	.st0{fill:#010101;}
	.st1{fill:#BEBEBE;}
	.st2{fill:#262223;}
	.st3{fill:#D1D1D1;}
	.st4{fill:#050505;}
	.st5{fill:#74CB6F;}
	.st6{fill:#CC7A83;}
	.st7{fill:#A6F07D;}
	.st8{fill:#F8FAF9;}
	.st9{fill:#71D370;}
	.st10{fill:#8EE572;}
	.st11{fill:#75CD70;}
	.st12{fill:#8FE199;}
	.st13{fill:#85DA71;}
	.st14{fill:#D8C27A;}
	.st15{fill:#8FDE7C;}
	.st16{fill:#D8C279;}
	.st17{fill:#EDD075;}
	.st18{fill:#EDD076;}
	.st19{fill:#74CD6F;}
	.st20{fill:#D6C179;}
	.st21{fill:#ECCF75;}
	.st22{fill:#F7F9F8;}
	.st23{fill:#74CC70;}
	.st24{fill:#F6F8F7;}
	.st25{fill:#90DC82;}
	.st26{fill:#94E17E;}
	.st27{fill:#90DC80;}
</style>
<g>
	<path class="st0" d="M225.1,1000c-2.4-1.7-5.2-1.6-7.9-2.4c-32.5-9.4-57-40-59.6-74.5c-0.3-3.5-0.4-7-0.4-10.5c0-81,0-162,0-243
		c0-1.9-0.8-4,0.8-5.7c1.1-1,2.3-0.6,3.1,0.2c4.1,4,8.8,7.3,12.8,11.5c0.4,0.4,0.3,0.9,0.1,1.4c0,34.3,0.1,68.6,0.1,103
		c0,42-0.2,84-0.1,125.9c0.1,22.3,6.5,42.3,22.7,58.4c12,11.9,27.1,17.7,43.6,18.5c32.9,1.6,65.9,0.4,98.9,0.6
		c9.5,0.1,9.5,0,9.9,9.5c0.1,2.3-0.1,4.6-0.1,7C307.7,1000,266.4,1000,225.1,1000z"/>
	<path class="st1" d="M230.1,1.1c0-0.4,0-0.7,0-1.1c159,0,318,0,477,0c0,0.3,0,0.6,0.1,0.8c-1.3,1.6-3.2,1.6-5,1.7
		c-1.8,0.1-3.7,0.1-5.5,0.1c-152.1,0-304.2,0-456.4,0C236.8,2.6,233.2,3.5,230.1,1.1z"/>
	<path class="st2" d="M593.1,501.5c-5.8-2.6-11.6-4.9-17.7-6.5c-15.9-4.1-32.3-4.1-48.4-7.1c-14-2.6-28.1-3.4-42.2-2
		c-12.7,1.3-24.3-0.4-34.8-8.7c-6.2-4.9-13.8-5.3-21.1-1.2c0.6,3.1,3.3,2.8,5.4,3.4c7.1,1.8,9.7,3.1,13.1,6.6
		c-7.9-2.1-17.3,1.3-22-8.2c-0.6,0.2-1.3,0.3-1.9,0.6c-3.9,2.4-6.1,1.7-7.6-3c-1.9-6-4.6-11.8-6.7-17.7c-0.9-2.5-2.5-4.9-1.8-8.2
		c15,6,29.7,3.9,44.4,0.4c22.7-5.4,43.5-14.4,60.9-30.3c9.1-8.3,10.1-12.5,4.9-23.7c-2.9-6.3-6.3-12.4-9.6-18.6
		c-1.6-3.1-1.1-4.8,2.5-5.7c12.6-3,21.3-11.2,28.3-21.5c11.4-16.6,17.8-35.2,21.6-54.8c3.4-17.5,0.9-33.8-6.8-49.9
		c-5.7-11.9-14.5-18.8-27.3-20.5c-31.1-4.3-59.8,0.4-83.2,23.4c-3.3,3.2-6,3.5-9.3,0.2c-4.3-4.2-8.5-8.6-11.5-13.7
		c-6.8-11.6-15.8-21.3-26-30.1c-4.6-3.9-9.6-6.7-15.5-7.4c-7.4-0.8-14.9-2.2-22.4-1.4c-17.2,1.9-30.5,10.9-38.9,25.5
		c-9.4,16.3-13.6,34.6-15.3,53.3c-0.3,3.8-1.7,4.6-5.1,3.1c-6.7-2.9-13.6-5.4-20.6-7.4c-16.5-4.6-33.2-8.8-50.6-7.6
		c-16.1,1.1-31.2,6.4-45.9,12.7c-2.6,1.1-5,2.8-8,2.3c-3.3-0.4-5,2.3-7.3,3.7c-2,1.2-3.8,4-5.9,3.1c-2.6-1.2-1.2-4.5-1.2-6.8
		c-0.1-63.4,0-126.7-0.1-190.1c0-3.1,0.8-6.4-1.6-9.1c-1,2-0.8,4.2-0.8,6.3c0,67.5,0.1,134.9,0.2,202.4c0,2.3-0.6,4-2.4,5.6
		c-9.5,8.8-17.3,18.9-23.9,29.9c-16.4,27.4-26.1,57.3-34,88c-4.9,19.1-8.5,38.3-6.3,58.2c0.8,7.5-0.4,9.5-7.6,11.5
		c-11.4,3.3-23.1,4.7-35,4.2c-2,3.8-4,7.5-6.7,11c-3.1,4-3.3,8.6-1.4,13.3c1.6,3.9,3.1,7.7,4.9,11.5c1.4,2.8,0.4,4.3-2.6,3.9
		c-8.9-1.1-17.9-0.4-26.8-2c-1.6-0.3-2.8-0.9-3.6-2.3c-2.9-5.5-1.6-12.6,3.4-16.7c3.7-3.1,7.5-6.2,10.1-10.3
		c2.7-4.5,6.4-6.5,11.6-5.9c1.8,0.2,3.7,0.1,5.5-0.1c1.8-0.3,3.7-0.6,3.8-3.1c-4.9-1.5-9.8-2.1-14.7-0.4c-8.1,2.9-16.1,6.1-24.2,9.1
		c-2.4,0.9-3.9,2.4-4.2,5c-0.7,5.1-1.3,10.2-0.9,15.4c0.7,11.2,6.9,17.6,17.5,17.7c22.8,0.1,45.6,0.2,68.4,0c4.6,0,6.4,1.7,7.2,6.1
		c3,17.9,7,35.5,14.2,52.2c11.5,26.4,28,49.3,46.7,70.9c1,1.1,2.4,1.9,1.9,3.7c6.1,3.4,10.5,8.9,16,13.1
		c16.7,7.5,34.2,10.3,52.4,9.5c12.3-0.6,24.1-2.6,34.7-9.3c3.4-2.2,6.9-4,10.3-6c4.7-2.7,10.1-4.4,13-9.6
		c7.2-12.8,9.8-26.4,7.9-40.9c-2.5-18.7-10.2-35.3-19.9-51.2c-3.1-5.1-7.4-8.9-12.4-12c-10.9-6.7-22.7-9-35.4-8.4
		c-8.8,0.4-13.7,6.9-19.9,11.4c-2.3,1.7-4.4,3.5-6.8,5.1c-3.7,2.6-7.4,5.2-10.2,8.7c-5.4,6.7-7.7,13.7-3.1,22
		c2.7,4.9,5.3,9.9,8.2,14.8c9.2,15.6,33,15.6,44.5,5.5c5.8-5.1,6.4-12.2,1.5-18.2c-4.6-5.6-11-7.7-17.6-9.6
		c-2.5-0.7-2.2,0.9-2.1,2.5c0.4,4.7,0.8,9.3,1.2,14.8c-4.6-3.1-8.3-5.7-12.1-8c-2.6-1.5-2.8-3.1-1.7-5.7c3.1-7.5,9.7-10.1,16.6-12.3
		c16.9-5.4,16.9-5.4,25.3,10.3c7.1,13.1,11.2,26.9,10.4,42c-0.6,12.5-6.4,20.7-18,23.3c-27.2,6-55.3,0.6-72.9-26.2
		c-12.4-18.9-23.4-38.7-32.5-59.4c-4.7-10.6-7.3-21.8-7.4-33.4c-0.1-10-1.8-9.2,9.3-9.3c1.3,0,2.7-0.1,4-0.1c11-0.6,21.6,0.4,31.4,6
		c4.8,2.8,10.1,3.2,15.4,1.5c5.1-1.6,10.4-2.4,15.7-3c15.1-1.6,30.3-0.3,45.4-0.2c17.1,0.1,34.3-0.8,51.4-1.2
		c8.2-0.2,15.8,0.8,22.7,6.7c7.6,6.5,15.8,5.1,23.7-2.5c3.4-3.3,7-4.7,11.6-4.6c10.8,0.1,21.7,0.1,32.5,0c3.5,0,6,1,7.8,4.2
		c3.8,6.5,9.1,11.8,14.6,17c7.7,7.1,16.5,8.7,26.4,6c11.2-3.1,19.9-10,26.8-19c4.1-5.4,8.4-7,15-5.1c11.7,3.4,23.3,2.4,34.5-3
		c5.2-2.5,10.9-4,16.6-5.3c19.5-4.4,39.4-6.4,58.8-11.3c2.1-0.5,5.3,0.3,5.5-3.7C597.6,506.2,597.1,503.3,593.1,501.5z M159.6,478.5
		c-7.9,2.9-16.1,3.7-24.5,3.6c-3.2,0-3.1-2.5-3-4.7c0.3-7.9,2.7-15.3,6.7-22.1c2-3.4,4-6.8,5.5-10.6c2.2-5.3,7.4-6.7,13.3-8.8
		c-2.5,9.5-3.1,18.2-0.6,26.9c1,3.7,2.2,7.3,4.3,10.6C162.9,475.9,162.6,477.4,159.6,478.5z M213.2,462.3c0.1,5.3-2.4,9.2-6.2,12.2
		c-2.1,1.7-4.3,3.1-6.5,4.6c-5.9,4-6,4-9.1-2.7c-3.3-7.1-4.6-14.5-3.8-22.3c0.2-2.2,1-3.6,3.4-3c6,1.3,12.1,2,17.8,4.6
		C211.9,457,213.6,459.1,213.2,462.3z M306.8,489.2c-10,0-20,0-29.6,0c-10.5,0.9-20.6-0.4-30.8-0.3c-4.2,0-5.2-1.8-3.9-5.7
		c1.4-4.2,2.6-8.6,3.6-13c0.7-3,2-4.5,5.3-4.5c14.1-0.1,28.3-0.4,42.4-0.7c2,0,3.4,0.9,4.8,2.2c5.6,5.4,8.4,12.3,11.1,19.3
		C311.1,489.6,308.5,489.1,306.8,489.2z M394.8,487.7c-11.2,0.3-22.4,0.9-33.1-3.9c-2.9-1.3-5.9-2.9-7.5-5.6
		c-3.2-5.1-7-4.5-11.4-2.2c-2.4,1.2-4.6,2.5-6.6,4.4c-1.6,1.5-2.5,4.6-5.9,2.7c-3.4-1.8-6.7-3.2-6.8-8c-0.5-14.2-0.5-14.3,13.4-14.1
		c8.7,0.2,17.2-1.1,25.8-2.2c2.8-0.4,5.6-0.4,7.2,2.1c5.9,9.7,14.7,16.6,23.3,23.7c0.8,0.6,1.6,1.1,2.4,1.7
		C395.3,486.7,395.1,487.2,394.8,487.7z"/>
	<path class="st0" d="M174.1,278c-4.9,3.7-9.3,8-16,10.8c0-2.4,0-4.3,0-6.2c0-67.1,0.1-134.2,0.1-201.3c0-0.8-0.1-1.7-0.2-2.5
		c0.8-30.2,25.2-62.5,55.1-72.8c5.6-1.9,11.3-3.3,17-4.9c11.5,0,23-0.1,34.5-0.1c145.5,0,291,0,436.6,0c2,0,4-0.1,6-0.1
		c19.1,3.3,33.2,14.2,45.3,28.7c6.5,7.8,14.2,14.5,21.3,21.8c28.7,29.2,57.5,58.4,86.1,87.7c11.7,12,17.1,26.7,17.1,43.4
		c0,120.7,0,241.3,0,362c0,6.3-0.2,6.4-6.5,6.4c-11.3,0-11.3,0-11.3-11.5c0-112.7-0.4-225.3,0.3-338c0.1-24.8-7.5-44.5-25.1-62
		c-34.8-34.6-68.7-70.2-102.7-105.7c-10.5-10.9-23.2-15.3-37.6-15.4c-147.5-0.1-295-0.1-442.5,0c-18.4,0-35.7,4-50.2,16.1
		c-18.3,15.3-26.6,35.3-27.2,58.7c-0.2,7.3,0.1,14.7,0.1,22C174.2,169.3,174.1,223.7,174.1,278z"/>
	<path class="st3" d="M332.1,774.5c0-54.8,0-109.7,0-164.5c0-2.3,0.1-4.7,0.2-7c0.6-13,5.3-18.6,18.1-21.1
		c10.6-2.1,21.2-2.2,31.5,1.3c9.3,3.1,13.3,8.9,13.4,18.7c0,8.7,0,17.3,0,26c0.1,71.8,0.2,143.6,0.3,215.5c0,2.6,1.4,6.8-1.9,7.4
		c-4.6,0.8-9.6,2.1-14.2-0.3c-1.8-0.9-1.5-3.2-1.5-5c0.1-78.5,0.2-157,0.3-235.5c0-13.4-5.8-18.3-18.8-16
		c-6.8,1.2-9.7,4.4-10.2,11.5c-0.1,2-0.1,4-0.1,6c0,111.8,0,223.7,0,335.5c0,2.6,1.2,6.3-2.6,7.2c-4.2,1-8.6,0.9-12.6-1.1
		c-1.4-0.7-1.5-2.5-1.6-4c-0.1-2.7-0.2-5.3-0.2-8C332.1,885.5,332.1,830,332.1,774.5z"/>
	<path class="st3" d="M496.9,777.5c0-27.8,0-55.6,0-83.4c0-5.1-1.1-6.6-5.9-5.9c-4.1,0.6-5.5-1.1-5.4-4.7c0-1.7,0.1-3.3,0.2-5
		c0.1-2.9,1.2-4,4.4-3.7c6,0.6,6.8-0.6,6.8-6.5c-0.2-27.6-0.2-55.3-0.3-82.9c0-3.2,1-4.7,4.6-4.9c12.9-0.4,12.8-0.5,12.8,12.5
		c-0.1,25-0.2,50-0.3,74.9c0,6.9,0.4,7.3,7.4,7.1c5-0.1,10,0,15-0.1c2.5,0,3.5,1,3.7,3.5c0.8,8.5-0.2,9.6-8.7,9.7c-4,0-8,0.2-12-0.1
		c-3.8-0.3-5.5,0.7-5.1,4.9c0.4,4.6,0.1,9.3,0.1,14c0,51.5,0,102.9,0,154.4c0,8.1-0.4,8.7-5.9,8.8c-10.1,0.2-11.4-0.7-11.4-9.1
		c-0.1-27.8,0-55.6,0-83.4C496.7,777.5,496.8,777.5,496.9,777.5z"/>
	<path class="st4" d="M698.2,111.4c0-17.5,0-35,0-52.5c0-3,0.2-6,0.6-9c0.7-5.7,2.6-7.3,8.1-7.1c4.8,0.2,6.9,2.2,7,7.7
		c0.6,28.6,1,57.3,0.3,85.9c-0.2,8.7,0,17.3-0.1,26c0,4.3,2.4,5.1,6.1,5.1c32-0.1,64-0.1,96-0.1c3.3,0,6.6,0.2,10,0.5
		c4.3,0.3,6.1,2.9,6.3,6.9c0.2,4.2-1.2,7.3-5.7,7.9c-2.8,0.4-5.6,0.6-8.5,0.6c-34,0-68,0-102,0c-13.1,0-18.2-5.1-18.2-18.1
		C698.2,147.4,698.2,129.4,698.2,111.4z"/>
	<path class="st3" d="M918.2,712c0,4.8,0.1,9.7,0,14.5c-0.1,3.5,1.3,4.8,4.7,4.6c3.2-0.2,6.4,0.2,9.5-0.1c3.9-0.4,4.6,2,4.4,4.9
		c-0.2,3.2,1.4,7.5-3.9,8.2c-2.6,0.3-5.3,0.2-8,0.1c-4.8-0.2-6.9,1.8-6.8,6.8c0.2,8.3-0.1,16.7,0.1,25c0.1,3.7-0.6,5.3-4.9,5.2
		c-12.3-0.2-12.3,0.1-12.1-12.1c0.1-6.8-0.1-13.7,0.1-20.5c0.1-3.3-1.2-4.6-4.4-4.4c-3.3,0.1-6.7-0.2-10,0.1c-3,0.3-4.2-0.8-4.4-3.8
		c-0.7-8.3,0.3-9.5,8.8-9.5c1.2,0,2.3-0.1,3.5,0c4.7,0.3,6.6-1.7,6.4-6.5c-0.2-9,0-18-0.1-27c0-3.2,1-4.4,4.3-4.4
		c12.7-0.3,12.7-0.4,12.7,12.4C918.2,707.6,918.2,709.8,918.2,712z"/>
	<path class="st3" d="M979.1,712.5c0,4.7,0.2,9.3-0.1,14c-0.2,3.6,1.3,4.8,4.7,4.5c2.6-0.2,5.4,0.3,8-0.1c5.6-0.9,6.1,2.4,6.3,6.7
		c0.2,4.6-1.4,6.7-6.3,6.6c-15.2-0.4-12.4,1-12.6,12.8c-0.1,6.7-0.1,13.3,0,20c0.1,2.9-0.9,4.1-4,4.1c-13.1,0.3-13.1,0.4-12.9-12.7
		c0.1-6.5-0.1-13,0.1-19.5c0.1-3.8-1.5-5.1-5-4.9c-3.1,0.2-6.3-0.2-9.4,0.1c-5.9,0.4-3.9-4.2-4.4-6.9c-0.6-2.9,0-5.9,3.9-6.1
		c3.2-0.2,6.3-0.1,9.5-0.1c3.7,0,5.5-1.6,5.4-5.4c-0.1-9.2,0.1-18.3-0.1-27.5c-0.1-3.5,0.7-5.1,4.7-5.1c12.6,0.1,12.6-0.1,12.3,12.5
		C979,707.9,979.1,710.2,979.1,712.5z"/>
	<path class="st5" d="M428.9,476c1.2,1.6,3,1.7,4.8,2c6.2,1.2,12,3.5,17.9,8.9c-8.8,0-16.3-0.5-23.6-2.8c-3.3-1-1-4.6-2.7-6.4
		C426.5,477.3,427.7,476.6,428.9,476z"/>
	<path class="st6" d="M48.1,485c0.8,3.5-0.9,6.2-3.2,8.5c-5.5,5.4-6.1,11.4-2.6,18.1c1.9,3.5,3.2,7.3,4.9,10.9
		c1.1,2.3,0.8,3.4-2,3.3c-10.5-0.3-20.9-0.7-31.3-1.9c-1.6-0.2-2.8-0.9-3.5-2.4c-3.3-7.1-1.1-15.3,5.5-20.1c3.7-2.7,7-5.9,9-9.9
		c2.4-4.8,6-6,11-5.7c3.4,0.2,7.3,1.6,10.3-1.7C47.1,483.9,47.7,484.1,48.1,485z"/>
	<path class="st7" d="M403.1,429.8c-4.8,1.1-8.2,5-12.9,6.3c-2.2,1.5-4.1,0.2-6.1-0.7c-5.4-2.5-10.3-6-15.9-8.3
		c-5.8-2.5-7.1-2.1-10.8,3c-2.1,3-4.1,6.1-6.5,8.8c-2.9,3.3-4.8,2.9-6.3-1.2c-0.9-2.3-1.3-4.8-2.5-7c-1.3-2.5-3.1-2.4-4.5-0.1
		c-1.6,2.5-1.3,5.3-1,8.2c0.5,3.4,1.6,6.9-0.8,10.1c-12.9,0.1-14-1.2-11.2-13.4c1-4.3,1.9-8.7,3-13c0.6-2.6-0.1-3.6-2.9-3.7
		c-4.1-0.1-6.5,1.9-8,5.5c-3.4,8.1-4.3,16.6-4.2,25.2c0.1,3.1,0,6.3,0,9.4c-5.3-0.7-7.9-3.8-8.7-8.9c0.5-7.2,1-14.4,1.5-21.7
		c0.2-2.6,1.4-5.7-1.8-7c-2.9-1.1-5.4,0.7-7.5,2.7c-3.3,3-3.5,7.7-6.2,11c-3.5,2.4-6.7,0.2-9.8-0.8c-3.1-1-5.9-1.9-8.3,1.4
		c-1.4,1.9-3.8,1.7-6,1.1c-1.8-0.4-3.5-1-5.3-1.3c-1.6-0.2-3.2-0.1-4.7-0.1c-2.2,0-4.3-0.5-6.4-0.9c-2.2-0.2-4.4-0.1-6.6,0
		c-2.2,0-4.4,0-6.6-0.4c-2.3-0.8-4.6-0.7-7-0.7c-6,0.1-11.4-3.6-18.2-2.5c3.5,3.1,7.3,5.3,11.4,6.7c4.9,1.7,9.7,3.4,14.8,4.5
		c2.1,0.4,5.4,0.5,5,3.6c-0.3,2.8-2.6,4.5-5.7,4.4c-11-2.2-22-4.2-32.6-7.7c-4.8-1.6-7.3-4.2-7.3-9.7c0.1-8.3-2-9.9-10.8-10.6
		c-4.6,0.3-9.2,0.5-12.9-3.1c-0.6-2.2-2.3-3.6-3.8-5.1c-3-2.9-5.8-2.7-8.6,0.2c-3.2,3.3-6.5,6.7-9.7,10c-3.2,1.3-4.4-1.4-5.9-3.2
		c-3.6-4.1-5.8-4.4-10.2-1.3c-3.7,2.7-6.3,6.3-8,10.6c-3.5,9-7.9,17.5-15.1,24.3c-3.2,3-3.7,7.7-6,11.4c-1.5,2.3-2.3,5.3-5.9,5.1
		c-2.5-11.1-1.5-22.1,1.6-32.9c4.1-14.1,9.8-27.8,13.5-42c5.9,0.1,11.8,1.3,17.7,0.1c6.3-1.3,8.1-3,8.6-9.5c0.4-6,1.5-11.8,4.8-17
		c3.7-5.9,8.5-10.5,15.4-12.6c1.6-0.1,3,0.5,4.1,1.6c3.9,4,8.3,3.5,13,1.9c7.3-2.4,14.4-5.1,22.3-4.9c4.1,0.1,7.9,0.8,11.7,2
		c5.5,1.8,10.6,1.5,15.3-2.8c4.8-4.5,9.2-4.1,13.9,1.1c2.3,2.6,3.8,2.5,5.9,0c2.2-2.6,5.2-4.1,8.4-5.3c1.6-0.6,3.3-0.7,4.6,0.7
		c1.2,1.3,0.8,2.8,0.2,4.2c-1.1,2.6-2.6,5.1-3.7,7.7c-1.5,3.5-0.7,4.5,3.2,4c6.7-0.9,7.8-2.3,7.4-9.4c-0.1-1.7-0.1-3.4,1.5-4.5
		c1.9-1.3,3.6-0.2,5.1,0.8c4.3,2.7,6.6,7,8.3,11.5c1.9,5,2.5,5.5,7.7,3.7c3.4-1.1,6.2-0.5,8.9,1.5c2.6,1.9,4.9,4,6.8,6.5
		c9.4,12.1,22,17.8,37.2,18.3c1.3,0,2.9,0.6,3.5-1c0.5-1.2-0.6-2.2-1.3-3.1c-3.3-4-6.9-7.7-10.9-11c-2.3-1.8-5.1-2.4-8-2.4
		c-3.8,0-6.9-1.5-9-4.5c-5.1-7.2-10.2-14.4-14.6-22.1c-3.8-6.5,1-14.4,8.6-14.7c4.5,15,14,26.2,27.1,34.5c5,3.2,9.8,6.9,14.9,10
		c17.2,10.7,35.3,11.2,54,4.4c5.6-2.1,9.9-5.7,13.4-10.7c5.7-8.2,11.7-16.1,17.6-24.2c2.9-3.9,6.4-5.1,10.9-2.8
		c6.5,3.3,13.5,5.5,20.3,8.1c8.4,3.1,15.1,8.4,19.8,16.1c3.7,6.1,6.8,12.5,10.2,18.7c0.1,2.6-2.1,2.7-3.7,3.1
		c-3.1,0.8-6.2,1.5-9.3,1.9c-4.1,0.5-4.2,2.4-2.3,5.3c0.9,1.4,1.7,2.8,2.4,4.4c1.6,4.1,0.2,8.5-3.3,11.1c-2.1,1.5-3.7,0.8-5.2-0.9
		c-1.9-2.4-3-5.2-4.4-7.8c-2.5-4.5-4.6-5.3-9.4-3.6c-2.8,1-5.4,2.5-8.1,3.8c-3.4,1.6-4.2,4.2-3.9,7.8c0.4,4.3-0.6,5.4-4.7,4.5
		c-13.7-3.3-26.1,0.2-37.8,7C407.9,428.8,405.6,429.5,403.1,429.8z"/>
	<path class="st8" d="M316,288c-0.3-18,3.1-34.1,10.2-49.4c8.7-18.7,23.7-28.1,44.2-28.5c10.5-0.2,18.5,5.6,25.9,12.3
		c3.3,3,6.4,6.4,8.8,10.2c5.4,8.5,11.9,16,20.2,21.9c2.2,1.6,3.5,3.8,4.2,6.5c7.7,29.8,5.7,58.9-5.9,87.3
		c-8.7,21.1-28.6,30.8-50.9,25c-23.3-6.1-41.7-18.8-48.4-42.7C320.3,316.4,314.4,302.2,316,288z"/>
	<path class="st8" d="M499.4,366.2c-10.6-19-28.3-27.5-48-33.1c-6.8-1.9-7.2-2.6-6.2-9.4c1.9-13.4,1.6-26.9,0.1-40.3
		c-1.3-11,1-20.4,9.7-27.8c16.7-14.2,36.6-20.5,58-20c19.6,0.5,31.5,11.5,34.7,31.5c5.5,34.5-5.8,63.2-32.5,85.9
		C510.1,357.3,504.8,361.7,499.4,366.2z"/>
	<path class="st9" d="M162.1,358c-11.9,5-18.1,14.1-18.9,26.8c-0.6,9.6-2,12-11.3,12.9c-5.5,0.6-11.3,1.6-16.6-1.6
		c0.5-1.7,1-3.4,1.5-5.1c2.6-1.9,5.1-0.4,7.6,0.2c4.5,1.1,5.3,0.7,4.7-3.7c-1.4-9.5,1.3-17.6,7.4-25c7.7-9.1,14.2-18.8,18.1-30.2
		c1.4-4.1,4-7.7,7.5-10.4c4.3-3.4,6.8-2.4,7.9,3.1c0.5,2.7,0.3,5.3-0.3,7.9c-0.5,1.9-1.1,3.8-1.6,6.5c4.2-2.1,5.6-5,5.6-8.9
		c0-4.2,0.1-8.3,1.1-12.4c1.6-6.4,5.5-10.9,11.2-14c4-2.1,8-4.1,11.5-6.9c0.8-0.6,1.9-1.6,2.6-1.2c4.3,2.7,6.7-0.8,9.6-2.6
		c4.7-3,9.6-4.3,15.2-3.3c6.7,1.2,13.4,2.7,19.7,5.3c6.8,2.8,13.6,5.5,21.3,3.7c1.9-0.4,3.7,0.3,5.1,1.6c3.6,3.3,6.9,2.9,10.7,0.2
		c4-2.9,7.3-2.3,10.6,1.2c2.3,2.4,3,5,1.5,8.2c-2.1,4.2-4.9,7.9-7.3,11.9c-5.5,2.7-5.5,2.7-1.5,7.5c0.4,0.5,0.9,1,1.2,1.6
		c0.9,1.4,2,2.9,0.8,4.6c-1,1.4-2.7,1-4.2,0.6c-6.6-1.4-12.4-4.6-18.1-8.2c-1.6-1-3-2.1-4.4-3.2c-7.5-5.7-7.7-5.7-15.5-0.3
		c-3,2.1-5.8,4.5-9,6.2c-6.3,3.3-12.1,2.3-17.8-1.5c-4.9-3.3-5.3-3.2-7,2.5c-2.2,7.4-6.4,12.3-14.5,13c-2.2,0.2-4.2,1.1-5.5,3.1
		c-1.6,2.6-3.7,2.3-6,1.2c-2.6-1.2-5-2.8-7.7-3.5c-2.1-0.5-5.1-0.9-5.2,2C171.7,354.5,167,356.2,162.1,358z"/>
	<path class="st10" d="M162.1,358c2.1-1.6,4.3-3.2,6.4-4.7c1.4-1,2.3-2.1,2.2-4.1c-0.3-4,2.7-6.2,6.7-4.9c1.7,0.5,3.3,1.6,5,2.3
		c3.2,1.4,6.3,4.7,9-1c1-2.2,4.5-2.2,6.8-2.4c6-0.4,8.7-4.2,10.7-9.1c0.4-0.9,0.6-1.9,0.9-2.8c2.4-7.3,2.4-7.3,8.9-3
		c7.4,5,13,4.8,20.1-0.6c3.2-2.4,6.6-4.4,9.8-6.8c3.6-2.7,6.5-2.1,9.8,0.7c7.3,6.4,15.4,11.5,25.1,13.6c1.1,0.2,2.3,1.3,3.1,0
		c0.6-1.1-0.4-2.2-1.1-3.1c-0.7-0.9-1.6-1.7-2.4-2.6c-1.4-1.6-3.8-2.8-2.8-5.4c1-2.4,3.5-2.1,5.6-2.2c6.6-2.4,13-5.1,20.2-5.1
		c1.9,6.7,3.8,13.4,5.7,20.1c-3.2,0.9-5.2,3.5-7.4,5.6c-2.6,2.5-2.1,5.8-0.2,8.7c4.7,7.2,9.5,14.4,14.4,21.6c1.9,2.7,4.5,4.5,8,4.1
		c5.1-0.5,9,1.8,12.3,5.4c3.3,3.5,7.1,6.6,9.6,10.8c1.4,2.3,2,3.9-1.9,3.9c-16.6,0-30.9-5.1-41.2-18.9c-1.9-2.5-4.3-4.5-6.9-6.5
		c-2.8-2.1-5.2-2.2-8.2-0.9c-5,2.3-6.8,1.2-8.4-3.9c-1.6-5-3.9-9.6-8.8-12.2c-1-0.5-2-1.5-3.2-0.8c-1.3,0.9-1.1,2.4-0.9,3.7
		c0.9,8-2.9,12-11,11.4c-3.1-0.2-4.8-1.3-2.8-4.8c1.7-2.9,3.1-5.9,4.5-8.9c0.5-1.1,1.6-2.3,0.1-3.6c-1.3-1.1-2.5-0.3-3.7,0.2
		c-3.9,1.6-7.3,4-9.8,7.4c-1.6,2.1-2.2,2.1-3.7-0.4c-4.3-7.1-9.2-7.8-14.9-2.1c-4.2,4.2-9.2,4.2-13.9,2.5
		c-10.1-3.7-19.9-2.7-29.7,0.8c-2.2,0.8-4.4,1.5-6.6,2.2c-4.7,1.4-9.2,1.8-12.6-2.7C164.3,358.6,163.3,358,162.1,358z"/>
	<path class="st11" d="M197,595.8c1.3-12.4,7.3-21.5,17.3-27.9c18.6-11.8,37.1-7.7,49,10.8c8.8,13.8,14.5,28.9,16.5,45
		c2.3,18.4-6.4,32.1-21,42.4c-10.9,7.7-22.9,10.5-36.3,9.1c-7.1-0.7-14.3,0-21.5-0.7c-12.8-1.2-21.9-9.5-31.3-17.3
		c-18.6-15.4-31.1-35.2-41.9-56.5c-6.2-12.3-13.6-24.1-16.3-37.8c-2.1-10.4-3.6-20.9-5.4-31.3c-0.3-1.7,0.2-3.2,2-3.4
		c3.2-0.4,6.5-0.4,8,3.4c2.5,6.3,4.5,12.9,5.8,19.5c3.9,19.4,10.3,37.7,20.9,54.5c6.5,10.4,10.3,22.5,18.2,32
		c13.1,15.6,28.9,28,48.7,33.3c19.6,5.2,37.1-1.5,50.8-15.6c9.9-10.1,9.8-23.4,7-36.6c-2.8-12.9-8.2-24.9-14-36.6
		c-5.8-11.6-18.3-15.5-32.2-10.6c-10.4,3.7-18.2,10.2-21.7,21C199.3,593.6,199.2,594.9,197,595.8z"/>
	<path class="st12" d="M306.2,316.9c-6.6,2.1-13.1,4.7-20.2,5.1c0.9-4.8,4.7-7.9,6.8-12.1c1.8-3.6,0.3-5.7-2.1-7.7
		c-2.5-2.1-4.8-3-7.9-0.4c-5.7,4.7-6.9,4.5-12.4,0c-1-0.9-2.1-2-3.5-1.6c-9.3,3-17.3-1.4-25.4-4.6c-6.1-2.4-12.4-3.5-18.8-4.4
		c-6.7-1-11.7,2.9-16.6,6.6c-3.4,2.6-3.4,2.5-5.6-1.2c-3.3,3.1-7,5.7-11.1,7.4c-10.2,4.3-14.3,12.4-14.1,22.9c0.1,5.2,0,10-4.8,13.3
		c-1.1,0.7-2.1,1.6-3.9,1.3c-0.2-3.4,1.6-6.3,2.2-9.4c0.8-4,1.6-9.3-1.8-10.9c-2.6-1.3-5.7,3.3-8,6.3c-4,5.3-4.8,12-8.2,17.6
		c-4.4,7.2-9.3,14.1-14.7,20.6c-5.5,6.7-6.8,14.2-5.2,22.4c1,5-0.1,6-5.2,4.9c-2.9-0.7-5.6-2.2-8.7-2c10-30.6,23.3-59.4,45.9-82.9
		c14-14.7,32.3-21.2,51.2-27.2c22.6-7.2,43.5-1.4,64.6,5.6c5.6,1.9,11,4.6,16.5,6.9c5.2,2.1,8.1,6,9.2,11.5
		C305,308.7,306.1,312.7,306.2,316.9z"/>
	<path class="st13" d="M403.1,429.8c8.5-4.4,16.6-9.6,26.3-11.2c6.5-1.1,12.9-0.7,19.2,0.8c2.8,0.7,3.9,0.4,2.9-2.7
		c-1.6-5,0.3-8.3,5.2-10c3.3-1.2,6.3-3,9.6-4.2c3.6-1.3,6.5-0.1,8.3,3.4c1.6,3.1,3.3,6.1,5,9.2c1.2,2.2,2.2,2.2,4,0.2
		c3.5-3.7,4.3-7.2,1-11.4c-1-1.3-1.6-2.9-2.5-4.3c-1.9-3-0.7-4,2.4-4.6c5.3-1,10.9-0.8,15.6-3.9c0.4,0.7,0.8,1.4,1.1,2.2
		c6.6,14.8,7.4,13.1-6.8,22.6c-15,10.1-32.4,14.1-49.6,18.2c-4.3,1.1-8.7,2-12.9,3.6c-4.6,1.7-8.7,1.2-13-0.7
		C413.6,434.5,408.4,432.2,403.1,429.8z"/>
	<path class="st14" d="M277.8,510c-17.4,0-34.9,1.5-51.8-4.4c-5-1.7-9.8,0.2-14.6,1.5c-2.7,0.8-5.3,1.9-8.2,1.1
		c-6-1.6-12.2-1.5-18.3-1.5c-5,0-10.5-7.2-9.3-12c0.4-1.6,1.6-1.8,3.1-1.8c9.9-0.1,19.6-0.4,28.8,5.4c10.4,6.5,21.8,3.4,32.9,1.4
		c16-2.8,32.1-1.8,48.3-1.3c6.3,0.2,12.6,0.7,18.9,0.5c5.4-0.2,5.6,2.8,5.8,6.9c0.2,4.6-2.6,4.1-5.5,4.1
		C297.8,510,287.8,510,277.8,510z"/>
	<path class="st11" d="M173.3,419c4.1,1.8,8.8,1.1,12.9,3.1c-3.6,9.1-6.8,18.3-9.2,27.8c-2.3,9.2-0.2,17,5.8,24.1
		c2.4,2.8,4.7,5.6,7,8.4c1.4,1.6,0.9,2.7-1.1,3c-3.3,0.6-6.5,1.2-9.8,1.5c-11.8,1-16.3,8.6-11.5,19.4c2,4.5,5.3,8,8.8,11.4
		c2.2,2.2,4.4,4.4,7.5,7.4c-8.2-0.6-13.7-4.5-18.5-8.8c-15.3-13.8-13.9-15.9-0.2-28.2c9.3-8.3,9.5-7.9,4.5-19.2
		c-5.2-11.6-6.6-23.5-3.5-35.9C167.3,427.7,170.3,423.4,173.3,419z"/>
	<path class="st15" d="M261.1,434c1.9,0.6,3.8,1.2,5.7,1.7c2.2,0.5,4.5,0.6,5.4-2c1.2-3.2,3.2-2.4,5.6-1.7c4.1,1.3,8,3.4,12.4,3.1
		c-0.2,4.1,1.3,8.1,0.9,12.2c-0.2,1.9-0.6,3.1-2.6,3.6c-16.1,3.6-32.3,4.8-48.6,0.9c-1.1-0.3-2-1.1-3-1.6c1.8-1.6,5.3-2.6,4.7-5
		c-0.6-2.1-4.2-1.6-6.6-2.3c-8.9-2.5-21.3-5.9-26.6-13.7c5-0.2,9.6-0.1,13.9,1.5c2.2,0.8,4.4,1.3,6.7,1.3c2.2,1.3,4.8-0.3,7,1
		c2.3,0,4.6,0,7,0c2.3,0.8,4.7,0.8,7,0c2,0.3,4,0.6,6,1C257.7,434.8,259.4,434.8,261.1,434z"/>
	<path class="st11" d="M100.1,471c4.6-2.8,5.8-7.9,7.8-12.3c0.8-1.8,1.4-3.7,3-5.1c7.7-6.6,11.7-15.4,15.3-24.6
		c2-5,5.3-9.1,10.2-11.8c3.9-2.1,7-1.6,9.3,2.2c1.3,2.1,2.6,4.3,5.4,4.6c-14.5,13.2-22.6,30.5-31.1,47.6c-3.9,7.8-9.3,10-17.5,7
		C98.4,477.2,100.3,473.7,100.1,471z"/>
	<path class="st8" d="M546.8,507.3c0,7.2-0.6,8.3-7.5,10.1c-10.4,2.8-20.5,6.7-31.3,7.9c-2.7,0.3-5.7,2.1-7.5-1.4
		c-1.6-3.1-0.4-11.3,2.2-12.5c4.8-2.2,5.4-5.8,5.6-10.5c0.3-7.5,2.5-8.8,9.4-6.7c7.2,2.2,14.5,3.3,21.9,4.7
		C546.8,500.2,546.8,500.1,546.8,507.3z"/>
	<path class="st16" d="M253.6,524.9c-17.6,0-35.3,0-52.9,0c-4.3,0-7.7-1.7-9.8-5.6c-1.1-2-1-3.1,1.6-3.1c11.8,0.3,23.6-0.4,35.4,0.4
		c9,0.6,18,0.3,26.9,0.6c18.4,0.6,36.9,1.3,55.3,2c1.5,0.1,3.7-0.7,3.9,1.9c0.1,2.5-1.9,3.5-4,3.6c-5.8,0.3-11.6,0.4-17.5,0.4
		c-13,0.1-26,0-39,0C253.6,525.1,253.6,525,253.6,524.9z"/>
	<path class="st17" d="M367.5,513.8c9.9-0.4,21.7,1.2,33.6,2.6c8.8,1.1,17.9-0.5,26.8-0.9c14.6-0.7,29.2-1.9,43.8-1.7
		c2.6,0,5,0.7,6.9,2.4c1.7,1.5,2.9,3.5,2.2,5.8c-0.8,2.6-3.3,1.8-5.2,1.6c-4.9-0.5-9.6-2.3-14.6-3c-8.4-1.2-16.6,0.1-24.8,0.6
		c-8.4,0.6-16.6,0.1-24.8-1.1c-6.8-1-13.6-0.2-20.3,0.7c-11.9,1.5-23.9,0.9-35.9,1.1c-2.2,0-4.5-0.3-6.5,0.3
		c-4.5,1.4-5.1-1.4-5.5-4.6c-0.5-4.2,2.4-3.9,5.1-3.9C354.2,513.9,359.8,513.8,367.5,513.8z"/>
	<path class="st11" d="M336,448.8c0-3.8,0.3-7.6-0.8-11.4c-0.5-1.7-0.3-3.6,0.3-5.4c0.8-2.4,1.5-4.8,4.6-5.1c3.5-0.3,3.1,2.8,4,4.7
		c0.5,1,0.6,2.3,1.1,3.3c1,1.7,0.1,4.9,2.1,5.2c2.5,0.3,3.3-2.8,4.6-4.6c2.1-2.8,4.2-5.6,6-8.5c1.9-3.2,4.3-3.6,7.6-2.4
		c6.7,2.3,12.4,6.3,18.6,9.4c1.9,0.9,3.8,2.1,6.1,2.1c-0.2,1.6-1.4,2.2-2.6,2.8c-14.7,7.6-30.3,11.2-46.8,10.9
		C339.2,449.8,337.6,449.2,336,448.8z"/>
	<path class="st18" d="M466.7,509.4c-16-2.1-32.1-1.7-48.1-3.4c-1.8-0.2-4.5,0.5-4.4-2.6c0.1-3,1.8-5,4.9-5.3
		c6.9-0.7,13.9-1.5,20.8-2c7.9-0.5,15.9-1,23.8-2c9.2-1.1,17.7,1.5,25.1,7.4c2.4,1.9,2.9,3.2-0.6,4.6
		C481.2,509,474,509.2,466.7,509.4z"/>
	<path class="st16" d="M117.5,493.3c7.7,0.2,15.7-1.3,22.7,3.6c2,1.4,3.5,2.7,2.8,5.2c-0.8,2.7-2.1,5.1-5.3,5.1
		c-16.8-0.4-33.5-0.9-50.3-1.5c-2-0.1-2.3-1.4-1.3-3.2c2.2-3.9,5.7-5.9,9.7-7.4C102.8,492.5,110.2,493,117.5,493.3z"/>
	<path class="st19" d="M338.4,534.2c-8.4-4.8-11.4-12.1-13-20c-2.1-10.6-2.4-21.6-6-32.3c2.8,0.7,4,2.7,5.3,4.2
		c2.9,3.4,5.4,3.8,8.5,0.2c2.7-3.2,6.3-5.3,10.4-6.6c2.1-0.7,3.9-0.6,5.8,0.3c1.8,0.9,3.9,1.9,4.1,4c0.2,2.4-2,3.1-3.8,4
		c-6,3-12.2,5.6-15.8,11.7c-2.2,3.7-3.4,7.3-2,11.8C334.2,518.7,336.1,526.1,338.4,534.2z"/>
	<path class="st19" d="M423.3,483.1c-9.2,5.3-16.7,11.7-19,23c-2.9-4.5-2.8-6.4-0.1-11.3c4.3-7.7,4-8.4-1.8-15.1
		c-5.5-6.2-11.9-11.6-16.3-18.8c-1.5-2.4-4.1-5.3-0.5-7.8c3.4-2.4,7.1-1.7,9.9,1.2c2.7,2.9,4.8,6.4,6.5,10c1.9,4,4,8,5.6,12.2
		c1.5,3.9,3.8,6,8.2,5.8C418.4,482.1,420.8,482.8,423.3,483.1z"/>
	<path class="st20" d="M124,521.8c-7.2,0.2-17,0.5-26.8-0.7c-1.8-0.2-3.7-0.1-5.2-1.4c-1.1-1-2.3-2.1-2-3.8c0.4-2,2.2-1.6,3.6-1.8
		c13.6-1.7,27.1,0.4,40.6,1.5c3.8,0.3,7.6,0.4,11.4,0.9c1.6,0.2,3.2,1,4.6,1.8c0.9,0.5,1.9,1.6,1.4,2.9c-0.4,1.2-1.7,0.7-2.6,0.7
		C141.5,521.8,134.1,521.8,124,521.8z"/>
	<path class="st19" d="M406.6,527.5c7.9,3.3,16,6.2,23.8,9.9c4.8,2.2,8.5,1.9,12.2-1.7c1.8-1.7,3.9-3.1,5.9-4.6
		c1.9-1.4,4.2-1.6,6.2-0.7c1.8,0.8,3.8,2.7,1.6,4.6c-6.9,6.2-14.5,11.1-24.1,12c-4.8,0.5-8.9-1.2-12.5-4.1
		C414.6,538.6,410.1,533.7,406.6,527.5z"/>
	<path class="st21" d="M368.1,506c-5.8,0-11.6,0-17.4,0c-1.9,0-3.9,0-4.2-2.4c-0.2-2.3,1.4-3.7,3.4-4.4c4.3-1.4,8.8-1.8,13.2-1.9
		c8.5-0.2,16.9-0.1,25.4-0.1c1.4,0,3-0.5,4,1.2c1.1,2,0.2,3.6-0.9,5.1c-1.4,2.1-3.6,2.7-6.1,2.7c-5.8,0-11.6,0-17.4,0
		C368.1,506.1,368.1,506,368.1,506z"/>
	<path class="st22" d="M64.3,489.5c-1.6,4.1-3,8.1-4.6,12c-2.3,5.3-2.6,10.6,0.4,15.7c0.7,1.2,1.5,2.4-0.2,3.3
		c-1.6,0.8-2.9,0.8-4.3-0.9c-8.1-9.9-8.5-17.3-1.4-28C56,488.9,57.4,488.6,64.3,489.5z"/>
	<path class="st23" d="M216.3,485.6c0-2.2,1.7-3,2.8-4.1c4.7-4.6,8.4-9.8,10.8-15.9c0.6-1.6,1.2-3.5,3.1-3.4c2.3,0.1,1.7,2.4,2,3.9
		c0.8,4.4,1.4,8.8,1,13.3c-0.5,5.9-2.7,7.9-8.6,7.5C223.7,486.7,220,486.1,216.3,485.6z"/>
	<path class="st24" d="M77.8,492.1c2.3,0.4,3.2,1.4,2.3,3.5c-2.9,6.7-3.9,13.6-2.5,20.9c0.4,2.1-0.6,4.5-2.9,5.3
		c-2.4,0.8-3.5-1.3-4.6-2.9c-3-4.5-2.5-13.1,1.2-18.4c1.7-2.4,4.3-4.1,5.1-7.2C76.6,492.7,77.5,492.4,77.8,492.1z"/>
	<path class="st5" d="M227.9,597.6c1.9,2.2,2.9,3.4,3.9,4.7c4.4,5.5,4,7.8-2.3,11.1c-5.8,3.1-12.2,3.6-18.4,2.2
		c-5.3-1.1-6.9-6.7-10.7-11.4c4.7,1.4,7.4,3.8,10.3,6c2,1.5,4.2,2.7,6.6,3.4c7.1,1.8,10.6-0.9,10.6-8.2
		C227.9,603.2,227.9,601.1,227.9,597.6z"/>
	<path class="st5" d="M304.2,450c1.6,4.3,5.1,6.6,8.7,8.9c1.9,5,1,10.1,1.1,16.5C307.9,467.1,302.7,459.9,304.2,450z"/>
	<path class="st3" d="M875.6,708.4c0-39.3,0-78.7,0-118c0-9-0.5-9.4-9.5-9.9c-7-0.4-7.5,0.1-7.5,6.9c0,33.5,0,67,0,100.5
		c0,6.6-0.3,6.9-6.8,5.8c-8.4-1.3-16.6-0.8-24.7,1.8c-10,3.2-14.4,8.6-14.4,19c-0.1,38.2-0.2,76.3,0,114.5
		c0.1,11.5,6.2,18.3,17.6,20.9c7.9,1.8,15.9,1.8,23.8,0.7c15.5-2.2,21.5-9.4,21.5-25.3c0-15.3-0.3-30.6-0.3-46
		c-0.1-23.7,0-47.3,0-71C875.4,708.4,875.5,708.4,875.6,708.4z M858.9,822.4c0,5,0.2,10.4-5.4,12.9c-6.4,2.9-13,3-19.2-0.4
		c-4-2.2-4.4-6.3-4.4-10.5c0-24.7,0-49.3,0-74c0-10.2,0-20.3,0-30.5c0-9.3,2.4-12.1,11.6-13.6c10.9-1.8,17.4,3.5,17.4,14.5
		c0,17,0,34,0,51C858.9,788.7,858.9,805.6,858.9,822.4z"/>
	<path class="st3" d="M697.9,714.9c0-10.7-4.7-16.9-14.9-19.7c-9.8-2.7-19.7-3.1-29.6-0.9c-13.9,3.1-18.4,8.6-18.4,22.8
		c0,37.8,0,75.6,0,113.4c0,26.3,0.1,52.6,0,79c-0.1,12.7-0.3,12.5,11.7,12.6c4.4,0.1,5.7-1.5,5.4-5.5c-0.1-0.8,0-1.7,0-2.5
		c0-19.3,0-38.6,0-58c0-6.4,0-6.2,6.2-5.5c6.1,0.8,12.3,0.7,18.4-0.2c15.6-2.3,21.4-9.3,21.4-25.3c0-17.8,0-35.7,0-53.5
		C697.9,752.9,698,733.9,697.9,714.9z M681.1,823.6c0,7.6-1.6,10.5-6.9,12.4c-7,2.5-13.8,2.3-19.8-2.6c-2.2-1.8-2.4-4.7-2.4-7.4
		c-0.1-10.7-0.1-21.3-0.1-32c0-23.8,0-47.6,0-71.4c0-13.5,8.3-19.6,20.9-15.5c5.8,1.9,8.2,5.3,8.2,12.1c0.1,17.6,0,35.3,0,52.9
		C681.1,789.3,681.1,806.4,681.1,823.6z"/>
	<path class="st3" d="M609.6,814.1c-0.1-2-1-2.6-2.8-2.6c-1.8,0-3.7-0.3-5.5-0.3c-9-0.1-9.4,0.4-8.8,9.1c0.3,5,0.9,10.5-3.6,13.9
		c-5.8,4.5-12.6,3.8-19.1,1.7c-5.7-1.9-6.4-7.2-6.5-12.3c-0.2-8.5,0.1-17-0.1-25.5c-0.1-3.8,1.4-4.5,4.8-3.9
		c8,1.5,15.9,1.1,23.8-0.5c11.1-2.1,17.1-8.8,17.3-19.9c0.3-20.5,0.2-41,0-61.5c-0.1-8.3-4.3-13.7-12.2-16.4
		c-12.2-4.1-24.5-4.2-36.8-0.2c-8.9,2.9-13,7.9-13.2,17.2c-0.3,19.1-0.1,38.3-0.1,57.4c0,14.7,0,29.3,0,44c0,6-0.9,12,0.1,17.9
		c1.3,7.5,5,13.6,12.5,16.1c12.2,3.9,24.6,3.9,36.9,0.2c6.8-2.1,11.1-6.7,12.5-13.6C610.3,828.1,609.8,821,609.6,814.1z
		 M563.9,717.4c0.1-6.2,3-9.5,9.1-10.4c2.3-0.3,4.6-0.6,6.9-0.4c9,0.5,12.6,3.5,12.7,12.5c0.3,16.6,0,33.2-0.2,49.8
		c0,5-1.6,9.5-6.9,10.9c-6.7,1.7-13.5,2.4-19.3-2.7c-2-1.8-2.4-4.2-2.4-6.8c0-8.8,0-17.6,0-26.4C563.9,735,563.8,726.2,563.9,717.4z
		"/>
	<path class="st3" d="M786.1,713.4c0-7.5-3.2-13.4-10.2-16.3c-14-5.7-28.2-5.8-42.3-0.1c-5.5,2.2-8.9,6.3-9.9,12.2
		c-1.1,6.4-0.6,12.9-0.3,19.4c0.1,1.4,0.7,3.2,2.2,3.7c4.4,1.5,9.1,1.6,13.2,0c2.8-1.1,1-5.1,1.2-7.8c0.1-1.5,0.1-3,0.1-4.5
		c0.5-10.1,4.6-14.1,14.7-14c2.5,0,5,0.5,7.3,1.3c4.6,1.4,7.1,4.6,7,9.6c-0.1,10-0.1,20,0,30c0,2.8-0.5,3.8-3.6,3.3
		c-6.9-1.1-13.9-0.8-20.9-0.2c-14.3,1.3-21.3,8.8-21.4,23.1c-0.1,18.7-0.1,37.3,0,56c0,10.1,5.4,17.1,15,19.9
		c10.3,3,20.7,2.8,31.1,0.5c10.8-2.4,16.7-9.9,16.7-21.1c0-19,0-38,0-57C786.1,752.1,786.1,732.8,786.1,713.4z M769,826.4
		c0,5-2.7,8.3-7.7,9.8c-5,1.4-9.9,1.3-14.7-0.4c-4.2-1.4-6.5-4.5-6.5-9c0-9,0-18,0-27c0-8.8-0.1-17.7,0-26.5c0.1-5.5,2.7-8.7,8-9.9
		c4.2-1,8.6-1,12.9,0c5,1.1,8,4.8,8,10.1C769.1,791.1,769.1,808.8,769,826.4z"/>
	<path class="st3" d="M465.2,714.5c0-10.3-4-15.6-13.8-18.8c-11.4-3.7-22.9-3.8-34.3-0.3c-10.3,3.1-14.7,8.4-14.8,19.2
		c-0.2,38.1-0.2,76.2,0,114.4c0.1,11.3,5.7,17.8,16.7,20.6c8.7,2.2,17.5,2.1,26.3,0.7c13.9-2.3,19.9-9.4,19.9-23.4
		c0-18.5,0-36.9,0-55.4C465.2,752.5,465.3,733.5,465.2,714.5z M448.1,828.5c-0.2,2.1-1,4.1-2.6,5.2c-5.8,4.1-12.2,4.8-18.9,2.4
		c-6-2.2-7.5-6.8-7.5-12.7c0.1-17,0-34,0-50.9c0-16.8-0.1-33.6,0-50.4c0.1-14,10-20,23-14.3c3.4,1.5,5.3,3.9,5.9,7.4
		c0.4,2.3,0.5,4.6,0.5,6.9c0,33,0,65.9,0,98.9C448.5,823.6,448.3,826.1,448.1,828.5z"/>
	<path class="st25" d="M250.1,433c-2.3,1.5-4.7,1.6-7,0C245.4,433,247.7,433,250.1,433z"/>
	<path class="st26" d="M236.1,433c-2.3-0.3-4.9,0.9-7-1C231.4,432.4,234,431.1,236.1,433z"/>
	<path class="st27" d="M261.1,434c-1.7,1.4-3.3,1.5-5,0C257.7,434,259.4,434,261.1,434z"/>
	<path class="st2" d="M358.5,289.9c2.1-0.1,5.2,0.5,8.2,1.4c7.2,2.2,9,4.8,8.2,12.4c-0.5,5-2.3,9.6-5.2,13.8
		c-5.8,8.1-12.1,9-19.8,2.7c-4.2-3.5-8.6-6.9-8.8-13.1C340.5,295,345.3,289.9,358.5,289.9z"/>
	<path class="st2" d="M532.5,290.3c-0.1,2.1-0.2,4.3-0.4,6.4c-1,8.6-6.7,12-14.8,8.5c-1.7-0.7-3.3-1.7-4.7-2.7
		c-6.6-4.9-6.9-7.7-3-14.7c3.5-6.3,8.5-9.6,15.7-10.5c3.1-0.4,4.8,0.3,5.5,3.2C531.6,283.8,532.6,286.9,532.5,290.3z"/>
</g>
</svg>
