<?xml version="1.0" encoding="utf-8"?>
<!-- Generator: Adobe Illustrator 22.0.1, SVG Export Plug-In . SVG Version: 6.00 Build 0)  -->
<svg version="1.1" id="Слой_1" xmlns:svgjs="http://svgjs.com/svgjs"
	 xmlns="http://www.w3.org/2000/svg" xmlns:xlink="http://www.w3.org/1999/xlink" x="0px" y="0px" viewBox="0 0 512 512"
	 style="enable-background:new 0 0 512 512;" xml:space="preserve">
<style type="text/css">
	.st0{fill:url(#SVGID_1_);}
</style>
<linearGradient id="SVGID_1_" gradientUnits="userSpaceOnUse" x1="-1.066752e-03" y1="256.0005" x2="511.9989" y2="256.0005">
	<stop  offset="0" style="stop-color:#FF8900"/>
	<stop  offset="1" style="stop-color:#DA1B60"/>
</linearGradient>
<path class="st0" d="M438.9,219.4v-128c0-10.1-8.2-18.3-18.3-18.3h-128c0-40.4-32.7-73.1-73.1-73.1s-73.1,32.7-73.1,73.1h-128
	C8.2,73.1,0,81.3,0,91.4v160.5c0,10.1,8.2,18.3,18.3,18.3c4.5,0,8.9-1.7,12.2-4.7c14.9-13.6,38.1-12.5,51.7,2.4
	c13.6,14.9,12.5,38.1-2.4,51.7c-14,12.7-35.3,12.7-49.2,0c-7.5-6.8-19.1-6.1-25.8,1.4c-3,3.4-4.7,7.7-4.7,12.2v160.5
	C0,503.8,8.2,512,18.3,512h160.5c10.1,0,18.3-8.2,18.3-18.3c0-4.5-1.7-8.9-4.7-12.2c-13.6-14.9-12.5-38.1,2.4-51.7
	c14.9-13.6,38.1-12.5,51.7,2.4c12.7,14,12.7,35.3,0,49.2c-6.8,7.5-6.1,19.1,1.4,25.8c3.4,3,7.7,4.7,12.2,4.7h160.5
	c10.1,0,18.3-8.2,18.3-18.3v-128c40.4,0,73.1-32.7,73.1-73.1S479.3,219.4,438.9,219.4z M36.6,221.8"/>
</svg>
